<?xml version="1.0" encoding="UTF-8" standalone="no"?>
<svg
   height="1600"
   viewBox="0 0 1600 1600"
   width="1600"
   version="1.1"
   id="svg1"
   sodipodi:docname="blender_icon_mesh_data.svg"
   inkscape:version="1.3.2 (091e20e, 2023-11-25, custom)"
   xmlns:inkscape="http://www.inkscape.org/namespaces/inkscape"
   xmlns:sodipodi="http://sodipodi.sourceforge.net/DTD/sodipodi-0.dtd"
   xmlns="http://www.w3.org/2000/svg"
   xmlns:svg="http://www.w3.org/2000/svg">
  <defs
     id="defs1" />
  <sodipodi:namedview
     pagecolor="#303030"
     showgrid="true"
     id="namedview1"
     bordercolor="#eeeeee"
     borderopacity="1"
     inkscape:showpageshadow="0"
     inkscape:pageopacity="0"
     inkscape:pagecheckerboard="0"
     inkscape:deskcolor="#d1d1d1"
     inkscape:zoom="0.196875"
     inkscape:cx="800"
     inkscape:cy="800"
     inkscape:window-width="1858"
     inkscape:window-height="1057"
     inkscape:window-x="1921"
     inkscape:window-y="-8"
     inkscape:window-maximized="1"
     inkscape:current-layer="svg1">
    <inkscape:grid
       id="grid5"
       units="px"
       spacingx="100"
       spacingy="100"
       color="#4772b3"
       opacity="0.2"
       visible="true"
       originx="0"
       originy="0" />
  </sodipodi:namedview>
  <g
     fill="#fff"
     id="g1"
     style="fill:#808080;fill-opacity:1">
    <path
       d="m90.5 494a.50005.50005 0 0 0 -.5.5v3a.50005.50005 0 0 0 .5.5h.949219l3.550781 6.62695v2.87305a.50005.50005 0 0 0 .5.5h3a.50005.50005 0 0 0 .5-.5v-2.87305l3.55078-6.62695h.94922a.50005.50005 0 0 0 .5-.5v-3a.50005.50005 0 0 0 -.5-.5h-3a.50005.50005 0 0 0 -.5.5v.5h-6v-.5a.50005.50005 0 0 0 -.5-.5zm.5 1h2v2h-2zm10 0h2v2h-2zm-7 1h6v1.5a.50005.50005 0 0 0 .5.5h.91406l-3.214841 6h-2.398438l-3.214843-6h.914062a.50005.50005 0 0 0 .5-.5zm2 9h2v2h-2z"
       fill-rule="evenodd"
       transform="matrix(100 0 0 100 -8900 -49300)"
       id="path1"
       style="fill:#808080;fill-opacity:1" />
  </g>
</svg>
