<?xml version="1.0" encoding="UTF-8" standalone="no"?>
<svg
   height="1600"
   viewBox="0 0 1600 1600"
   width="1600"
   version="1.1"
   id="svg3"
   sodipodi:docname="blender_icon_object_data.svg"
   inkscape:version="1.3.2 (091e20e, 2023-11-25, custom)"
   xmlns:inkscape="http://www.inkscape.org/namespaces/inkscape"
   xmlns:sodipodi="http://sodipodi.sourceforge.net/DTD/sodipodi-0.dtd"
   xmlns="http://www.w3.org/2000/svg"
   xmlns:svg="http://www.w3.org/2000/svg">
  <defs
     id="defs3" />
  <sodipodi:namedview
     pagecolor="#303030"
     showgrid="true"
     id="namedview1"
     bordercolor="#eeeeee"
     borderopacity="1"
     inkscape:showpageshadow="0"
     inkscape:pageopacity="0"
     inkscape:pagecheckerboard="0"
     inkscape:deskcolor="#d1d1d1"
     inkscape:zoom="0.196875"
     inkscape:cx="800"
     inkscape:cy="800"
     inkscape:window-width="1858"
     inkscape:window-height="1057"
     inkscape:window-x="1921"
     inkscape:window-y="-8"
     inkscape:window-maximized="1"
     inkscape:current-layer="svg3">
    <inkscape:grid
       id="grid5"
       units="px"
       spacingx="100"
       spacingy="100"
       color="#4772b3"
       opacity="0.2"
       visible="true"
       originx="0"
       originy="0" />
  </sodipodi:namedview>
  <g
     fill="#fff"
     id="g3"
     style="fill:#808080;fill-opacity:1">
    <g
       enable-background="new"
       transform="matrix(100 0 0 100 -2600 -34600)"
       id="g2"
       style="fill:#808080;fill-opacity:1">
      <path
         d="m27.5 347a.50005.50005 0 0 0 -.5.5v3.5h1v-3h3v-1zm9.5 0v1h3v3h1v-3.5a.50005.50005 0 0 0 -.5-.5zm-10 10v3.5a.50005.50005 0 0 0 .5.5h3.5v-1h-3v-3zm13 0v3h-3v1h3.5a.50005.50005 0 0 0 .5-.5v-3.5z"
         opacity=".6"
         id="path1"
         style="fill:#808080;fill-opacity:1" />
      <path
         d="m30.5 350c-.276131.00003-.499972.22387-.5.5v7c.000028.27613.223869.49997.5.5h7c.276131-.00003.499972-.22387.5-.5v-7c-.000028-.27613-.223869-.49997-.5-.5z"
         id="path2"
         style="fill:#808080;fill-opacity:1" />
    </g>
  </g>
</svg>
