<?xml version="1.0" encoding="UTF-8" standalone="no"?>
<svg
   height="1600"
   viewBox="0 0 1600 1600"
   width="1600"
   version="1.1"
   id="svg3"
   sodipodi:docname="blender_icon_sticky_uvs_loc.svg"
   inkscape:version="1.3.2 (091e20e, 2023-11-25, custom)"
   xmlns:inkscape="http://www.inkscape.org/namespaces/inkscape"
   xmlns:sodipodi="http://sodipodi.sourceforge.net/DTD/sodipodi-0.dtd"
   xmlns="http://www.w3.org/2000/svg"
   xmlns:svg="http://www.w3.org/2000/svg">
  <defs
     id="defs3" />
  <sodipodi:namedview
     pagecolor="#303030"
     showgrid="true"
     id="namedview1"
     bordercolor="#eeeeee"
     borderopacity="1"
     inkscape:showpageshadow="0"
     inkscape:pageopacity="0"
     inkscape:pagecheckerboard="0"
     inkscape:deskcolor="#d1d1d1"
     inkscape:zoom="0.196875"
     inkscape:cx="800"
     inkscape:cy="800"
     inkscape:window-width="1858"
     inkscape:window-height="1057"
     inkscape:window-x="1921"
     inkscape:window-y="-8"
     inkscape:window-maximized="1"
     inkscape:current-layer="svg3">
    <inkscape:grid
       id="grid5"
       units="px"
       spacingx="100"
       spacingy="100"
       color="#4772b3"
       opacity="0.2"
       visible="true"
       originx="0"
       originy="0" />
  </sodipodi:namedview>
  <g
     fill="#fff"
     id="g3"
     style="fill:#808080;fill-opacity:1">
    <g
       enable-background="new"
       transform="matrix(100 0 0 100 -34100.002 -15699.933)"
       id="g2"
       style="fill:#808080;fill-opacity:1">
      <path
         d="m347.5 161c-.27613.00003-.49997.22387-.5.5v2.5h-1.5c-.27613.00003-.49997.22387-.5.5v3c.00003.27613.22387.49997.5.5h3c.27613-.00003.49997-.22387.5-.5v1c.00003.27613.22387.49997.5.5h3c.27613-.00003.49997-.22387.5-.5v-3c-.00003-.27613-.22387-.49997-.5-.5h-2c.27613-.00003.49997-.22387.5-.5v-3c-.00003-.27613-.22387-.49997-.5-.5zm.5 1h2v2h-2zm-2 3h2v2h-2zm4 1h2v2h-2z"
         id="path1"
         style="fill:#808080;fill-opacity:1" />
      <path
         d="m342.49219 157.99219a.50005.50005 0 0 0 -.31641.12109.50005.50005 0 0 0 -.0195.0156.50005.50005 0 0 0 -.0176.0176.50005.50005 0 0 0 -.002.004.50005.50005 0 0 0 -.0312.0332.50005.50005 0 0 0 -.002.004.50005.50005 0 0 0 -.0274.0371.50005.50005 0 0 0 -.002.004.50005.50005 0 0 0 -.07408.35325v.91797a.50005.50005 0 1 0 1 0v-.5h.5a.50005.50005 0 1 0 0-1h-.91992a.50005.50005 0 0 0 -.0879-.008zm13 0a.50005.50005 0 0 0 -.07422.00781h-.91797a.50005.50005 0 1 0 0 1h.5v.5a.50005.50005 0 1 0 1 0v-.91992a.50005.50005 0 0 0 -.11328-.4043.50005.50005 0 0 0 -.002-.004.50005.50005 0 0 0 -.0312-.0332.50005.50005 0 0 0 -.004-.002.50005.50005 0 0 0 -.0332-.0312.50005.50005 0 0 0 -.004-.002.50005.50005 0 0 0 -.32031-.11133zm-9.99219.00781a.50005.50005 0 1 0 0 1h1a.50005.50005 0 1 0 0-1zm3 0a.50005.50005 0 1 0 0 1h1a.50005.50005 0 1 0 0-1zm3 0a.50005.50005 0 1 0 0 1h1a.50005.50005 0 1 0 0-1zm-9.00781 2.99219a.50005.50005 0 0 0 -.49219.50781v1a.50005.50005 0 1 0 1 0v-1a.50005.50005 0 0 0 -.50781-.50781zm13 0a.50005.50005 0 0 0 -.49219.50781v1a.50005.50005 0 1 0 1 0v-1a.50005.50005 0 0 0 -.50781-.50781zm-13 3a.50005.50005 0 0 0 -.49219.50781v1a.50005.50005 0 1 0 1 0v-1a.50005.50005 0 0 0 -.50781-.50781zm13 0a.50005.50005 0 0 0 -.49219.50781v1a.50005.50005 0 1 0 1 0v-1a.50005.50005 0 0 0 -.50781-.50781zm-13 3a.50005.50005 0 0 0 -.49219.50781v1a.50005.50005 0 1 0 1 0v-1a.50005.50005 0 0 0 -.50781-.50781zm13 0a.50005.50005 0 0 0 -.49219.50781v1a.50005.50005 0 1 0 1 0v-1a.50005.50005 0 0 0 -.50781-.50781zm-13 3a.50005.50005 0 0 0 -.49219.50781v.91992a.50005.50005 0 0 0 .11328.4043.50005.50005 0 0 0 .0156.0195.50005.50005 0 0 0 .0176.0176.50005.50005 0 0 0 .004.002.50005.50005 0 0 0 .0332.0312.50005.50005 0 0 0 .004.002.50005.50005 0 0 0 .39435.10348h.91797a.50005.50005 0 1 0 0-1h-.5v-.5a.50005.50005 0 0 0 -.50781-.50781zm13 0a.50005.50005 0 0 0 -.49219.50781v.5h-.5a.50005.50005 0 1 0 0 1h.91992a.50005.50005 0 0 0 .4043-.11328.50005.50005 0 0 0 .004-.002.50005.50005 0 0 0 .0332-.0312.50005.50005 0 0 0 .002-.004.50005.50005 0 0 0 .0312-.0332.50005.50005 0 0 0 .002-.004.50005.50005 0 0 0 .0274-.0371.50005.50005 0 0 0 .002-.004.50005.50005 0 0 0 .074-.35325v-.91797a.50005.50005 0 0 0 -.50781-.50781zm-9.99219 1.00781a.50005.50005 0 1 0 0 1h1a.50005.50005 0 1 0 0-1zm3 0a.50005.50005 0 1 0 0 1h1a.50005.50005 0 1 0 0-1zm3 0a.50005.50005 0 1 0 0 1h1a.50005.50005 0 1 0 0-1z"
         opacity=".6"
         id="path2"
         style="fill:#808080;fill-opacity:1" />
    </g>
  </g>
</svg>
