<?xml version="1.0" encoding="UTF-8" standalone="no"?>
<svg
   height="1500"
   viewBox="0 0 1600 1500"
   width="1600"
   version="1.1"
   id="svg1"
   sodipodi:docname="blender_icon_outliner_collection.svg"
   inkscape:version="1.3.2 (091e20e, 2023-11-25, custom)"
   xmlns:inkscape="http://www.inkscape.org/namespaces/inkscape"
   xmlns:sodipodi="http://sodipodi.sourceforge.net/DTD/sodipodi-0.dtd"
   xmlns="http://www.w3.org/2000/svg"
   xmlns:svg="http://www.w3.org/2000/svg">
  <defs
     id="defs1" />
  <sodipodi:namedview
     pagecolor="#303030"
     showgrid="true"
     id="namedview1"
     bordercolor="#eeeeee"
     borderopacity="1"
     inkscape:showpageshadow="0"
     inkscape:pageopacity="0"
     inkscape:pagecheckerboard="0"
     inkscape:deskcolor="#d1d1d1"
     inkscape:zoom="0.196875"
     inkscape:cx="800"
     inkscape:cy="749.20635"
     inkscape:window-width="1858"
     inkscape:window-height="1057"
     inkscape:window-x="1921"
     inkscape:window-y="-8"
     inkscape:window-maximized="1"
     inkscape:current-layer="svg1">
    <inkscape:grid
       id="grid5"
       units="px"
       spacingx="100"
       spacingy="100"
       color="#4772b3"
       opacity="0.2"
       visible="true"
       originx="0"
       originy="0" />
  </sodipodi:namedview>
  <g
     fill="#fff"
     id="g1"
     style="fill:#808080;fill-opacity:1">
    <path
       d="m1456 538v7.5c0 .27613.2239.49997.5.5h11c.2761-.00003.5-.22387.5-.5v-7.5zm5 1h2a1.0001 1.0001 0 1 1 0 2h-2a1.0001 1.0001 0 1 1 0-2zm-5.5-6c-.2761.00003-.5.22387-.5.5v3c0 .27613.2239.49997.5.5h13c.2761-.00003.5-.22387.5-.5v-3c0-.27613-.2239-.49997-.5-.5z"
       transform="matrix(100 0 0 100 -145400.005 -53200)"
       id="path1"
       style="fill:#808080;fill-opacity:1" />
  </g>
</svg>
