<?xml version="1.0" encoding="UTF-8" standalone="no"?>
<svg
   height="1800"
   viewBox="0 0 1800 1800"
   width="1800"
   version="1.1"
   id="svg1"
   sodipodi:docname="blender_icon_view_ortho.svg"
   inkscape:version="1.3.2 (091e20e, 2023-11-25, custom)"
   xmlns:inkscape="http://www.inkscape.org/namespaces/inkscape"
   xmlns:sodipodi="http://sodipodi.sourceforge.net/DTD/sodipodi-0.dtd"
   xmlns="http://www.w3.org/2000/svg"
   xmlns:svg="http://www.w3.org/2000/svg">
  <defs
     id="defs1" />
  <sodipodi:namedview
     pagecolor="#303030"
     showgrid="true"
     id="namedview1"
     bordercolor="#eeeeee"
     borderopacity="1"
     inkscape:showpageshadow="0"
     inkscape:pageopacity="0"
     inkscape:pagecheckerboard="0"
     inkscape:deskcolor="#d1d1d1"
     inkscape:zoom="0.175"
     inkscape:cx="900"
     inkscape:cy="900"
     inkscape:window-width="1858"
     inkscape:window-height="1057"
     inkscape:window-x="1921"
     inkscape:window-y="-8"
     inkscape:window-maximized="1"
     inkscape:current-layer="svg1">
    <inkscape:grid
       id="grid5"
       units="px"
       spacingx="100"
       spacingy="100"
       color="#4772b3"
       opacity="0.2"
       visible="true"
       originx="0"
       originy="0" />
  </sodipodi:namedview>
  <g
     fill="#fff"
     id="g1"
     style="fill:#808080;fill-opacity:1">
    <path
       d="m467.5 10.000005a.50005006.50005006 0 0 0 -.5.5v15a.50005006.50005006 0 0 0 .5.5h15a.50005006.50005006 0 0 0 .5-.5v-15a.50005006.50005006 0 0 0 -.5-.5zm.5.999999h4v4h-4zm5 0h4v4h-4zm5 0h4v4h-4zm-10 5h4v4.000001h-4zm5 0h4v4.000001h-4zm5 0h4v4.000001h-4zm-10 5.000001h4v4h-4zm5 0h4v4h-4zm5 0h4v4h-4z"
       transform="matrix(100 0 0 100 -46599.99999999999 -900)"
       id="path1"
       style="fill:#808080;fill-opacity:1" />
  </g>
</svg>
