<?xml version="1.0" encoding="UTF-8" standalone="no"?>
<svg
   height="1600"
   viewBox="0 0 1600 1600"
   width="1600"
   version="1.1"
   id="svg1"
   sodipodi:docname="blender_icon_material_data.svg"
   inkscape:version="1.3.2 (091e20e, 2023-11-25, custom)"
   xmlns:inkscape="http://www.inkscape.org/namespaces/inkscape"
   xmlns:sodipodi="http://sodipodi.sourceforge.net/DTD/sodipodi-0.dtd"
   xmlns="http://www.w3.org/2000/svg"
   xmlns:svg="http://www.w3.org/2000/svg">
  <defs
     id="defs1" />
  <sodipodi:namedview
     pagecolor="#303030"
     showgrid="true"
     id="namedview1"
     bordercolor="#eeeeee"
     borderopacity="1"
     inkscape:showpageshadow="0"
     inkscape:pageopacity="0"
     inkscape:pagecheckerboard="0"
     inkscape:deskcolor="#d1d1d1"
     inkscape:zoom="0.196875"
     inkscape:cx="800"
     inkscape:cy="800"
     inkscape:window-width="1858"
     inkscape:window-height="1057"
     inkscape:window-x="1921"
     inkscape:window-y="-8"
     inkscape:window-maximized="1"
     inkscape:current-layer="svg1">
    <inkscape:grid
       id="grid5"
       units="px"
       spacingx="100"
       spacingy="100"
       color="#4772b3"
       opacity="0.2"
       visible="true"
       originx="0"
       originy="0" />
  </sodipodi:namedview>
  <g
     fill="#fff"
     id="g1"
     style="fill:#808080;fill-opacity:1">
    <path
       d="m202 494c-3.86008 0-7 3.13992-7 7s3.13992 7 7 7 7-3.13992 7-7-3.13992-7-7-7zm0 1c3.3058 0 5.97583 2.65852 5.99805 5.95898-1.11151.94364-3.00269 2.04102-5.99805 2.04102v4c-3.31963 0-6-2.68037-6-6 0-.0145.002-.0285.002-.043 1.1112.94401 3.00099 2.043 5.998 2.043z"
       transform="matrix(99.999620512 0 0 99.999620512 -19399.92287688 -49299.8098768)"
       id="path1"
       style="fill:#808080;fill-opacity:1" />
  </g>
</svg>
