<?xml version="1.0" encoding="UTF-8" standalone="no"?>
<svg
   height="1600"
   viewBox="0 0 1600 1600"
   width="1600"
   version="1.1"
   id="svg3"
   sodipodi:docname="blender_icon_mesh_cube.svg"
   inkscape:version="1.3.2 (091e20e, 2023-11-25, custom)"
   xmlns:inkscape="http://www.inkscape.org/namespaces/inkscape"
   xmlns:sodipodi="http://sodipodi.sourceforge.net/DTD/sodipodi-0.dtd"
   xmlns="http://www.w3.org/2000/svg"
   xmlns:svg="http://www.w3.org/2000/svg">
  <defs
     id="defs3" />
  <sodipodi:namedview
     pagecolor="#303030"
     showgrid="true"
     id="namedview1"
     bordercolor="#eeeeee"
     borderopacity="1"
     inkscape:showpageshadow="0"
     inkscape:pageopacity="0"
     inkscape:pagecheckerboard="0"
     inkscape:deskcolor="#d1d1d1"
     inkscape:zoom="0.196875"
     inkscape:cx="800"
     inkscape:cy="800"
     inkscape:window-width="1858"
     inkscape:window-height="1057"
     inkscape:window-x="1921"
     inkscape:window-y="-8"
     inkscape:window-maximized="1"
     inkscape:current-layer="svg3">
    <inkscape:grid
       id="grid5"
       units="px"
       spacingx="100"
       spacingy="100"
       color="#4772b3"
       opacity="0.2"
       visible="true"
       originx="0"
       originy="0" />
  </sodipodi:namedview>
  <g
     fill="#fff"
     id="g3"
     style="fill:#808080;fill-opacity:1">
    <g
       enable-background="new"
       transform="matrix(100 0 0 100 -2600 -38800)"
       id="g2"
       style="fill:#808080;fill-opacity:1">
      <path
         d="m30.5 389a.50005.50005 0 0 0 -.353516.14648l-3 3a.50005.50005 0 0 0 -.146484.35352v10a.50005.50005 0 0 0 .5.5h10a.50005.50005 0 0 0 .353516-.14648l3-3a.50005.50005 0 0 0 .146484-.35352v-10a.50005.50005 0 0 0 -.5-.5zm.207031 1h9.292969v9.29297l-2.707031 2.70703h-9.292969v-9.29297z"
         id="path1"
         style="fill:#808080;fill-opacity:1" />
      <path
         d="m39.490234 389.98828a.50005.50005 0 0 0 -.34375.15234l-1.853515 1.85938h-7.792969a.50005.50005 0 1 0 0 1h7.5v7.5a.50005.50005 0 1 0 1 0v-7.79297l1.853516-1.86133a.50005.50005 0 0 0 -.363282-.85742z"
         opacity=".8"
         id="path2"
         style="fill:#808080;fill-opacity:1" />
    </g>
  </g>
</svg>
