<?xml version="1.0" encoding="UTF-8" standalone="no"?>
<svg
   height="1600"
   viewBox="0 0 1600 1600"
   width="1600"
   version="1.1"
   id="svg1"
   sodipodi:docname="blender_icon_anim_data.svg"
   inkscape:version="1.3.2 (091e20e, 2023-11-25, custom)"
   xmlns:inkscape="http://www.inkscape.org/namespaces/inkscape"
   xmlns:sodipodi="http://sodipodi.sourceforge.net/DTD/sodipodi-0.dtd"
   xmlns="http://www.w3.org/2000/svg"
   xmlns:svg="http://www.w3.org/2000/svg">
  <defs
     id="defs1" />
  <sodipodi:namedview
     pagecolor="#303030"
     showgrid="true"
     id="namedview1"
     bordercolor="#eeeeee"
     borderopacity="1"
     inkscape:showpageshadow="0"
     inkscape:pageopacity="0"
     inkscape:pagecheckerboard="0"
     inkscape:deskcolor="#d1d1d1"
     inkscape:zoom="0.196875"
     inkscape:cx="800"
     inkscape:cy="800"
     inkscape:window-width="1858"
     inkscape:window-height="1057"
     inkscape:window-x="1921"
     inkscape:window-y="-8"
     inkscape:window-maximized="1"
     inkscape:current-layer="svg1">
    <inkscape:grid
       id="grid5"
       units="px"
       spacingx="100"
       spacingy="100"
       color="#4772b3"
       opacity="0.2"
       visible="true"
       originx="0"
       originy="0" />
  </sodipodi:namedview>
  <g
     fill="#fff"
     id="g1"
     style="fill:#808080;fill-opacity:1">
    <path
       d="m310.58203 494c-1.1875 0-2.13583.69085-2.52344 1.62109-.3876.93025-.20775 2.10475.66993 2.98243l2.5 2.5c.62232.62232.69247 1.32282.45507 1.89257-.23739.56976-.78906 1.00391-1.60156 1.00391l-6.53515-.008 2.13867-2.13867a.50005.50005 0 1 0 -.70703-.70704l-2.9336 2.93555-.01.008a.50005.50005 0 0 0 -.20704.41602.50005.50005 0 0 0 0 .008.50005.50005 0 0 0 .004.0469.50005.50005 0 0 0 .008.0488.50005.50005 0 0 0 .19336.29882l2.94532 2.94532a.50005.50005 0 1 0 .70703-.70704l-2.1543-2.15429 6.55078.008c1.1875 0 2.13584-.69085 2.52344-1.62109.3876-.93025.20775-2.10475-.66992-2.98243l-2.5-2.5c-.62233-.62232-.69248-1.32282-.45508-1.89257.2374-.56976.78906-1.00391 1.60156-1.00391h4.75a.50005.50005 0 1 0 0-1z"
       transform="matrix(-100 0 0 100 31683.348 -49300.3664)"
       id="path1"
       style="fill:#808080;fill-opacity:1" />
  </g>
</svg>
